<svg width="16" height="16" viewBox="0 0 16 16" fill="none" xmlns="http://www.w3.org/2000/svg">
<path d="M10.333 5.0013L11.8663 6.53464C11.991 6.65679 12.1585 6.72521 12.333 6.72521C12.5075 6.72521 12.6751 6.65679 12.7997 6.53464L14.1997 5.13464C14.3218 5.01002 14.3902 4.84247 14.3902 4.66797C14.3902 4.49347 14.3218 4.32592 14.1997 4.2013L12.6663 2.66797" stroke="#F59E0B" stroke-width="1.33333" stroke-linecap="round" stroke-linejoin="round"/>
<path d="M13.9996 1.33203L7.59961 7.73203" stroke="#F59E0B" stroke-width="1.33333" stroke-linecap="round" stroke-linejoin="round"/>
<path d="M4.99967 14.0013C7.02472 14.0013 8.66634 12.3597 8.66634 10.3346C8.66634 8.30959 7.02472 6.66797 4.99967 6.66797C2.97463 6.66797 1.33301 8.30959 1.33301 10.3346C1.33301 12.3597 2.97463 14.0013 4.99967 14.0013Z" stroke="#F59E0B" stroke-width="1.33333" stroke-linecap="round" stroke-linejoin="round"/>
</svg>
